<svg width="72" height="72" viewBox="0 0 72 72" fill="none" xmlns="http://www.w3.org/2000/svg">
<g clip-path="url(#clip0_4091_674)">
<path d="M35.5922 12.0033C23.0402 12.2103 12.4652 22.5813 12.0182 35.1183C11.7542 42.4023 14.7602 49.3173 20.2682 54.0963C22.6412 56.1573 24.0002 59.3253 24.0002 63.0003C24.0002 67.9623 28.0382 72.0003 33.0002 72.0003H39.0002C43.9622 72.0003 48.0002 67.9623 48.0002 63.0003V61.8753C48.0002 58.9773 49.3652 56.1813 51.8462 53.9973C57.0302 49.4433 60.0002 42.8853 60.0002 36.0003C60.0002 29.5173 57.4532 23.4393 52.8302 18.8913C48.2072 14.3433 42.0812 11.8563 35.5922 12.0033ZM42.0002 63.0003C42.0002 64.6563 40.6562 66.0003 39.0002 66.0003H33.0002C31.3442 66.0003 30.0002 64.6563 30.0002 62.7933C30.0002 61.8453 29.9072 60.9153 29.7692 60.0003H42.1232C42.0482 60.6183 42.0002 61.2453 42.0002 61.8753V63.0003ZM47.8862 49.4913C46.3532 50.8383 45.1172 52.3623 44.1662 54.0003H39.0002V41.4483C42.4832 40.2063 45.0002 36.9063 45.0002 33.0003C45.0002 31.3413 43.6592 30.0003 42.0002 30.0003C40.3412 30.0003 39.0002 31.3413 39.0002 33.0003C39.0002 34.6593 37.6562 36.0003 36.0002 36.0003C34.3442 36.0003 33.0002 34.6563 33.0002 33.0003C33.0002 31.3443 31.6592 30.0003 30.0002 30.0003C28.3412 30.0003 27.0002 31.3413 27.0002 33.0003C27.0002 36.9063 29.5172 40.2063 33.0002 41.4483V54.0003H27.7622C26.8322 52.3263 25.6412 50.8203 24.1982 49.5663C20.0702 45.9813 17.8142 40.7943 18.0122 35.3343C18.3482 25.9323 26.2802 18.1563 35.6942 18.0033C35.7962 18.0033 35.8952 18.0033 36.0002 18.0033C40.7582 18.0033 45.2312 19.8303 48.6242 23.1723C52.0922 26.5833 54.0032 31.1403 54.0032 36.0033C54.0032 41.1633 51.7742 46.0773 47.8892 49.4943L47.8862 49.4913ZM50.3552 7.42227L54.0602 1.39227C54.9242 -0.023732 56.7722 -0.464732 58.1852 0.408268C59.5982 1.27527 60.0392 3.12027 59.1692 4.53327L55.4642 10.5633C54.9002 11.4873 53.9132 11.9943 52.9052 11.9943C52.3682 11.9943 51.8282 11.8503 51.3392 11.5503C49.9262 10.6833 49.4852 8.83527 50.3552 7.42227ZM70.2392 19.8663L64.4402 22.4823C64.0412 22.6653 63.6212 22.7493 63.2102 22.7493C62.0642 22.7493 60.9752 22.0923 60.4742 20.9823C59.7902 19.4733 60.4622 17.6943 61.9742 17.0163L67.7732 14.4003C69.2912 13.7133 71.0612 14.3913 71.7392 15.9003C72.4232 17.4093 71.7512 19.1883 70.2392 19.8663ZM12.5822 4.53027C11.7152 3.11727 12.1592 1.26927 13.5722 0.405268C14.9912 -0.458732 16.8332 -0.014732 17.6972 1.39527L21.3932 7.42827C22.2602 8.84127 21.8162 10.6893 20.4032 11.5533C19.9142 11.8533 19.3712 11.9943 18.8402 11.9943C17.8292 11.9943 16.8452 11.4843 16.2782 10.5603L12.5822 4.52727V4.53027ZM11.1332 21.1833C10.6202 22.2603 9.54616 22.8873 8.42716 22.8873C7.99216 22.8873 7.55116 22.7943 7.13416 22.5903L1.74016 20.0073C0.246163 19.2933 -0.386837 17.5023 0.330163 16.0083C1.04116 14.5113 2.84116 13.8723 4.32916 14.5983L9.72316 17.1813C11.2172 17.8953 11.8502 19.6893 11.1332 21.1833Z" fill="#F39838"/>
</g>
<defs>
<clipPath id="clip0_4091_674">
<rect width="72" height="72" fill="white"/>
</clipPath>
</defs>
</svg>
