<svg width="117" height="117" viewBox="0 0 117 117" fill="none" xmlns="http://www.w3.org/2000/svg">
<path d="M97.5022 19.5011H73.1283C73.1283 8.73164 64.3967 0 53.6272 0H19.5011C8.73164 0 0 8.73164 0 19.5011V112.127C0 114.819 2.18124 117.003 4.87611 117.003C7.57098 117.003 9.75222 114.822 9.75222 112.127V63.3761H48.7511C48.7511 74.1456 57.4828 82.8772 68.2522 82.8772H97.5022C108.272 82.8772 117.003 74.1456 117.003 63.3761V39.0022C117.003 28.2328 108.272 19.5011 97.5022 19.5011ZM9.74889 53.6239V19.5011C9.74889 14.1147 14.1147 9.75222 19.4978 9.75222H53.6239C59.0103 9.75222 63.3728 14.118 63.3728 19.5011V43.875C63.3728 49.2614 59.007 53.6239 53.6239 53.6239H9.74889ZM107.251 63.3761C107.251 68.7625 102.885 73.125 97.5022 73.125H68.2522C62.8658 73.125 58.5033 68.7592 58.5033 63.3761V62.6824C67.0882 60.4678 73.095 52.7401 73.1283 43.875V29.25H97.5022C102.889 29.25 107.251 33.6158 107.251 38.9989V63.3728V63.3761Z" fill="#F39838"/>
</svg>
