<svg width="72" height="72" viewBox="0 0 72 72" fill="none" xmlns="http://www.w3.org/2000/svg">
<g clip-path="url(#clip0_4091_344)">
<path d="M64.0862 24.216C62.7962 24.072 61.4192 24 60.0002 24C51.5882 24 44.6582 32.07 43.2362 33.846C41.5412 33.282 39.6152 32.934 37.4342 33C33.2912 33.093 29.6792 34.467 26.7512 36.174C27.2462 32.424 27.1592 28.914 27.0692 25.992C27.0062 24.066 26.9522 22.218 27.0992 20.853L33.9692 18.666C35.2142 18.27 36.0602 17.112 36.0602 15.807V14.964L38.4272 14.103C39.8492 13.539 40.9982 12.402 41.5802 10.986C42.1562 9.579 42.1442 8.046 41.5382 6.663C39.7652 2.616 35.2352 0 30.0002 0C24.5252 0 20.3312 3.561 20.0312 3.834C2.07916 17.64 -0.0118394 36.105 -0.0268394 48.792C-0.0328394 52.851 1.63816 56.775 4.55716 59.568C9.45016 64.239 20.0432 72.072 35.9972 72.072C50.0552 72.072 59.8952 68.403 65.6762 65.325C69.5762 63.252 71.9972 59.196 71.9972 54.747V33.162C71.9972 28.572 68.5952 24.726 64.0832 24.222L64.0862 24.216ZM66.0002 54.744C66.0002 56.97 64.7971 58.995 62.8591 60.027C57.6812 62.784 48.8192 66.072 36.0002 66.072C22.1342 66.072 12.9452 59.277 8.70016 55.23C6.93616 53.544 5.96716 51.264 5.97316 48.801C5.98816 36.414 8.01316 20.649 23.8322 8.475C23.8592 8.451 26.7332 6.003 30.0002 6.003C32.9582 6.003 34.9862 7.284 35.8292 8.67L32.0312 10.05C30.8432 10.482 30.0572 11.607 30.0572 12.867V13.617L23.6282 15.663C22.7312 15.948 22.0232 16.635 21.7082 17.52C20.8712 19.884 20.9612 22.803 21.0662 26.181C21.2222 31.278 21.4382 37.653 18.3482 43.665C18.1412 44.073 17.9972 44.517 17.9972 45.006C17.9972 46.662 19.3412 48.006 20.9972 48.006C21.9572 48.006 22.7702 47.529 23.3192 46.827C23.3792 46.752 29.3372 39.186 37.5632 39.006C43.4132 39.006 46.8542 43.458 47.0132 43.692C47.9372 45.054 49.7972 45.417 51.1682 44.496C52.5422 43.572 52.9081 41.709 51.9841 40.332C51.8882 40.188 50.7452 38.502 48.5972 36.786C50.8322 34.242 55.4972 30.006 59.9942 30.006C61.1912 30.006 62.3432 30.069 63.4142 30.189C64.8842 30.354 65.9941 31.632 65.9941 33.165V54.75L66.0002 54.744Z" fill="#F39838"/>
</g>
<defs>
<clipPath id="clip0_4091_344">
<rect width="72" height="72" fill="white"/>
</clipPath>
</defs>
</svg>
