<svg width="77" height="77" viewBox="0 0 77 77" fill="none" xmlns="http://www.w3.org/2000/svg">
<g clip-path="url(#clip0_4091_676)">
<path d="M70.7659 16.78L47.1077 5.50908C41.8999 2.3984 35.4181 2.34321 30.158 5.36471L6.2336 16.78C6.14382 16.8249 6.05073 16.873 5.9641 16.9243C0.286558 20.1707 -1.68446 27.4049 1.56187 33.0825C2.66228 35.0072 4.28093 36.5841 6.2336 37.6342L12.8332 40.7784V56.4992C12.8371 63.5289 17.4112 69.7394 24.1233 71.8286C28.7943 73.1799 33.6376 73.8415 38.4999 73.7921C43.3614 73.8466 48.2048 73.1906 52.8765 71.8447C59.5886 69.7557 64.1627 63.545 64.1666 56.5153V40.7719L70.5833 37.7047V64.167C70.5833 65.9389 72.0197 67.3753 73.7916 67.3753C75.5635 67.3753 76.9999 65.9389 76.9999 64.167V25.667C77.0213 21.8996 74.0465 18.4192 70.7659 16.78ZM57.7498 56.5153C57.7514 60.72 55.0233 64.4393 51.0123 65.7007C46.9448 66.8629 42.7298 67.427 38.4998 67.3754C34.2697 67.427 30.0547 66.8629 25.9873 65.7007C21.9762 64.4392 19.2481 60.72 19.2498 56.5153V43.836L29.8919 48.9052C32.5177 50.4644 35.5166 51.2838 38.5704 51.2761C41.4772 51.2967 44.3351 50.5272 46.8383 49.0496L57.7498 43.8358V56.5153ZM68.0165 31.8431L43.8192 43.3931C40.4454 45.3576 36.2635 45.302 32.943 43.2487L9.26864 31.9875C6.62973 30.5645 5.64407 27.2717 7.06707 24.6329C7.54832 23.7405 8.26989 23.0007 9.14998 22.4972L33.1964 11.0114C36.5713 9.05123 40.751 9.10673 44.0726 11.1558L67.7309 22.4267C69.4708 23.3928 70.5593 25.2172 70.583 27.2071C70.5862 29.0921 69.6156 30.8451 68.0165 31.8431Z" fill="#F39838"/>
</g>
<defs>
<clipPath id="clip0_4091_676">
<rect width="77" height="77" fill="white"/>
</clipPath>
</defs>
</svg>
