<svg width="97" height="117" viewBox="0 0 97 117" fill="none" xmlns="http://www.w3.org/2000/svg">
<path d="M9.52454 14.9448C8.15557 12.6294 8.9172 9.63982 11.2316 8.26505C13.5395 6.89357 16.527 7.6566 17.8992 9.97529L20.7849 14.8495C22.1539 17.1649 21.3922 20.1545 19.0778 21.5293C16.806 22.8909 13.789 22.1574 12.4102 19.819L9.52454 14.9448ZM93.2353 69.5804C85.9834 79.0952 70.534 95.0563 48.5156 95.0563C26.4972 95.0563 10.7491 79.2991 3.72365 69.8994C-1.24996 63.2492 -1.24011 54.0271 3.74663 47.469C11.0018 37.9344 26.4676 21.9338 48.5156 21.9338C70.5636 21.9338 86.1607 37.7239 93.255 47.1368C98.2582 53.7771 98.2483 63.0058 93.2353 69.5804ZM85.4877 53.0108C79.4865 45.045 66.7062 31.6822 48.5156 31.6822C30.325 31.6822 17.6563 45.2785 11.491 53.3792C9.09119 56.5332 9.10104 60.822 11.514 64.0517C17.4495 71.9879 30.151 85.308 48.5156 85.308C66.8802 85.308 79.3355 71.7511 85.4975 63.6669C87.9105 60.503 87.9072 56.2241 85.4877 53.0108ZM67.98 58.4967C67.98 69.2515 59.2507 77.9967 48.5156 77.9967C37.7805 77.9967 29.0513 69.2515 29.0513 58.4967C29.0513 47.7419 37.7805 38.9967 48.5156 38.9967C59.2507 38.9967 67.98 47.7419 67.98 58.4967ZM58.2494 58.4967C58.2494 53.1193 53.8832 48.7484 48.5189 48.7484C43.1546 48.7484 38.7884 53.1226 38.7884 58.4967C38.7884 63.8708 43.1546 68.2451 48.5189 68.2451C53.8832 68.2451 58.2494 63.8708 58.2494 58.4967ZM48.5156 14.6225C51.201 14.6225 53.3809 12.4387 53.3809 9.74836V4.87418C53.3809 2.18384 51.201 0 48.5156 0C45.8302 0 43.6503 2.18384 43.6503 4.87418V9.74836C43.6503 12.4387 45.8302 14.6225 48.5156 14.6225ZM77.9567 21.5293C80.2285 22.8909 83.2455 22.1574 84.6243 19.819L87.51 14.9448C88.8789 12.6294 88.1173 9.63982 85.8028 8.26505C83.495 6.89357 80.5075 7.6566 79.1353 9.97529L76.2496 14.8495C74.8806 17.1649 75.6423 20.1545 77.9567 21.5293ZM84.621 97.1744C83.2487 94.8524 80.2646 94.0927 77.9534 95.4642C75.6422 96.8356 74.8773 99.8286 76.2463 102.144L79.132 107.018C80.5075 109.353 83.5245 110.083 85.7996 108.728C88.1107 107.354 88.8756 104.364 87.5067 102.049L84.621 97.1744ZM48.5156 102.371C45.8302 102.371 43.6503 104.555 43.6503 107.245V112.119C43.6503 114.81 45.8302 116.993 48.5156 116.993C51.201 116.993 53.3809 114.81 53.3809 112.119V107.245C53.3809 104.555 51.201 102.371 48.5156 102.371ZM19.0778 95.4642C16.7666 94.0894 13.7825 94.8557 12.4102 97.1744L9.52454 102.049C8.15557 104.364 8.9172 107.354 11.2316 108.728C13.5034 110.09 16.5204 109.357 17.8992 107.018L20.7849 102.144C22.1539 99.8286 21.3922 96.8389 19.0778 95.4642Z" fill="#F39838"/>
</svg>
