<svg width="72" height="72" viewBox="0 0 72 72" fill="none" xmlns="http://www.w3.org/2000/svg">
<g clip-path="url(#clip0_4091_319)">
<path d="M16.842 32.358C19.428 34.893 21.945 37.008 24.003 38.625C22.869 40.383 22.062 42.312 21.573 44.331C19.206 42.534 15.963 39.897 12.642 36.642C4.251 28.419 0 20.865 0 14.19C0 6.366 6.393 0 14.25 0C18.786 0 22.869 2.439 25.5 6.093C28.131 2.439 32.214 0 36.75 0C44.607 0 51 6.366 51 14.19C51 16.929 50.247 19.689 49.023 22.383C47.124 21.597 45.102 21.144 43.044 21.042C44.268 18.687 45.003 16.365 45.003 14.187C45.003 9.669 41.304 5.997 36.753 5.997C32.358 5.997 28.503 10.302 28.503 15.204H22.503C22.503 10.299 18.648 5.997 14.253 5.997C9.702 5.997 6.003 9.672 6.003 14.187C6.003 19.047 9.852 25.5 16.845 32.355L16.842 32.358ZM68.577 57.33C68.694 57.984 68.751 58.617 68.751 59.25C68.751 66.282 63.03 72 56.001 72C53.703 72 51.465 71.367 49.5 70.188C47.538 71.37 45.297 72 42.999 72C35.97 72 30.249 66.282 30.249 59.25C30.249 58.617 30.306 57.984 30.423 57.33C28.227 54.987 26.997 51.927 26.997 48.687C26.997 45.516 28.188 42.498 30.321 40.161C30.27 39.747 30.249 39.342 30.249 38.937C30.249 32.355 35.604 27 42.186 27C44.862 27 47.43 27.906 49.5 29.517C51.57 27.906 54.138 27 56.814 27C63.396 27 68.751 32.355 68.751 38.937C68.751 39.342 68.727 39.747 68.679 40.161C70.809 42.495 72.003 45.516 72.003 48.687C72.003 51.927 70.773 54.987 68.577 57.33ZM46.503 34.935C45.384 33.729 43.842 32.997 42.189 32.997C38.916 32.997 36.252 35.661 36.252 38.934C36.252 39.318 36.309 39.735 36.426 40.23L37.164 42.075L35.49 43.509C33.909 44.814 33.003 46.698 33.003 48.687C33.003 50.748 33.96 52.674 35.625 53.976L37.287 55.278L36.627 57.282C36.369 58.065 36.252 58.671 36.252 59.25C36.252 62.97 39.279 66 43.002 66C44.235 66 45.444 65.646 46.503 64.986V34.935ZM66.003 48.687C66.003 46.701 65.097 44.814 63.516 43.509L61.977 42.24L62.574 40.257C62.697 39.75 62.754 39.324 62.754 38.937C62.754 35.661 60.09 33 56.817 33C55.164 33 53.622 33.732 52.503 34.938V64.989C53.562 65.646 54.768 66.003 56.004 66.003C59.727 66.003 62.754 62.973 62.754 59.253C62.754 58.674 62.637 58.065 62.379 57.285L61.719 55.281L63.381 53.979C65.046 52.677 66.003 50.748 66.003 48.687Z" fill="#F39838"/>
</g>
<defs>
<clipPath id="clip0_4091_319">
<rect width="72" height="72" fill="white"/>
</clipPath>
</defs>
</svg>
