<svg width="72" height="72" viewBox="0 0 72 72" fill="none" xmlns="http://www.w3.org/2000/svg">
<g clip-path="url(#clip0_4091_311)">
<path d="M9 67.5C9 69.984 6.984 72 4.5 72C2.016 72 0 69.984 0 67.5C0 65.016 2.016 63 4.5 63C6.984 63 9 65.016 9 67.5ZM18 51C14.685 51 12 53.685 12 57C12 60.315 14.685 63 18 63C21.315 63 24 60.315 24 57C24 53.685 21.315 51 18 51ZM72 30C72 39.927 63.927 48 54 48C51.801 48 49.632 47.577 47.535 46.74C44.301 49.503 40.278 51 36 51C29.502 51 23.589 47.526 20.406 41.991C10.755 41.676 3 33.726 3 24C3 14.073 11.073 6 21 6C22.659 6 24.288 6.225 25.86 6.669C29.544 2.46 34.863 0 40.5 0C48.684 0 55.938 5.13 58.752 12.684C66.531 14.793 72 21.801 72 30ZM66 30C66 24.12 61.77 19.158 55.938 18.204L54.021 17.892L53.52 16.014C51.954 10.119 46.596 6 40.497 6C36.06 6 31.905 8.208 29.376 11.91L27.984 13.95L25.713 12.975C24.216 12.33 22.629 12.003 20.997 12.003C14.379 12.003 8.997 17.385 8.997 24.003C8.997 30.621 14.379 36.003 20.997 36.003C21.108 36.003 24.111 35.721 24.111 35.721L24.957 37.704C26.847 42.138 31.179 45.003 35.997 45.003C39.321 45.003 42.426 43.626 44.727 41.127L46.302 39.417L48.354 40.518C50.187 41.502 52.086 42.003 53.997 42.003C60.615 42.003 65.997 36.621 65.997 30.003L66 30Z" fill="#F39838"/>
</g>
<defs>
<clipPath id="clip0_4091_311">
<rect width="72" height="72" fill="white"/>
</clipPath>
</defs>
</svg>
