<svg width="72" height="72" viewBox="0 0 72 72" fill="none" xmlns="http://www.w3.org/2000/svg">
<g clip-path="url(#clip0_4091_321)">
<path d="M36 0C28.8799 0 21.9197 2.11136 15.9995 6.06709C10.0793 10.0228 5.46511 15.6453 2.74035 22.2234C0.0155983 28.8015 -0.697322 36.0399 0.691746 43.0233C2.08081 50.0066 5.50948 56.4212 10.5442 61.4559C15.5789 66.4905 21.9935 69.9192 28.9768 71.3083C35.9601 72.6973 43.1985 71.9844 49.7766 69.2597C56.3548 66.5349 61.9772 61.9207 65.9329 56.0005C69.8887 50.0804 72 43.1201 72 36C71.9897 26.4554 68.1935 17.3046 61.4445 10.5556C54.6954 3.80649 45.5446 0.0103232 36 0ZM36 66C30.0666 66 24.2664 64.2405 19.3329 60.9441C14.3994 57.6477 10.5543 52.9623 8.28363 47.4805C6.013 41.9987 5.4189 35.9667 6.57646 30.1473C7.73402 24.3279 10.5912 18.9824 14.7868 14.7868C18.9824 10.5912 24.3279 7.734 30.1473 6.57644C35.9667 5.41889 41.9987 6.01299 47.4805 8.28362C52.9623 10.5542 57.6477 14.3994 60.9441 19.3329C64.2405 24.2664 66 30.0666 66 36C65.9913 43.9538 62.8278 51.5794 57.2036 57.2036C51.5794 62.8278 43.9538 65.9913 36 66Z" fill="#F39838"/>
<path d="M38.151 15.189C36.421 14.8738 34.6428 14.9426 32.9424 15.3907C31.2419 15.8388 29.6607 16.6551 28.3107 17.7819C26.9606 18.9087 25.8747 20.3185 25.1298 21.9114C24.3849 23.5043 23.9992 25.2415 24 27C24 27.7956 24.3161 28.5587 24.8787 29.1213C25.4413 29.6839 26.2044 30 27 30C27.7957 30 28.5587 29.6839 29.1213 29.1213C29.6839 28.5587 30 27.7956 30 27C29.9992 26.1173 30.1932 25.2453 30.5682 24.4463C30.9431 23.6472 31.4897 22.9407 32.1691 22.3771C32.8484 21.8135 33.6437 21.4067 34.4983 21.1858C35.3529 20.9649 36.2456 20.9353 37.113 21.099C38.2981 21.329 39.3878 21.9071 40.2427 22.7595C41.0977 23.6118 41.6792 24.6996 41.913 25.884C42.1491 27.1272 41.9861 28.4132 41.4473 29.5582C40.9085 30.7032 40.0214 31.6485 38.913 32.259C37.0775 33.3224 35.5608 34.8585 34.5208 36.7074C33.4808 38.5562 32.9556 40.6502 33 42.771V45C33 45.7956 33.3161 46.5587 33.8787 47.1213C34.4413 47.6839 35.2044 48 36 48C36.7957 48 37.5587 47.6839 38.1213 47.1213C38.6839 46.5587 39 45.7956 39 45V42.771C38.9624 41.727 39.2004 40.6916 39.6902 39.7689C40.18 38.8462 40.9042 38.0688 41.79 37.515C43.9635 36.3212 45.7139 34.4834 46.8003 32.2542C47.8866 30.025 48.2558 27.5141 47.8568 25.0666C47.4579 22.6191 46.3105 20.3553 44.5725 18.5865C42.8345 16.8177 40.5911 15.6308 38.151 15.189Z" fill="#F39838"/>
<path d="M39 54C39 52.3431 37.6569 51 36 51C34.3431 51 33 52.3431 33 54C33 55.6569 34.3431 57 36 57C37.6569 57 39 55.6569 39 54Z" fill="#F39838"/>
</g>
<defs>
<clipPath id="clip0_4091_321">
<rect width="72" height="72" fill="white"/>
</clipPath>
</defs>
</svg>
