<svg width="257" height="80" viewBox="0 0 257 80" fill="none" xmlns="http://www.w3.org/2000/svg">
<path d="M81.1183 37.9664C81.1152 33.3123 78.2498 29.1146 73.8519 27.3182C70.6299 9.36065 53.108 -2.64612 34.716 0.501018C20.6886 2.89928 9.70415 13.6234 7.24766 27.3182C1.22371 29.7923 -1.60522 36.5662 0.928932 42.4473C2.66274 46.4702 6.57094 49.1965 11.0307 49.4936C12.7771 53.1111 15.1449 56.4098 18.0325 59.2475C13.801 63.7578 11.1162 69.444 10.3508 75.5139C10.1178 77.3226 11.4316 78.9736 13.2843 79.201H13.2859C13.4253 79.218 13.5648 79.2273 13.7059 79.2273C15.408 79.2258 16.8438 77.988 17.0562 76.3386C17.6695 71.5529 19.817 67.0798 23.1927 63.5582C28.2277 67.1865 34.2913 69.201 40.5466 69.3248C46.7845 69.1995 52.8306 67.1943 57.8546 63.5814C61.216 67.0968 63.3539 71.5575 63.9673 76.3293C64.178 77.9802 65.6139 79.218 67.3176 79.2211C67.4587 79.2211 67.5997 79.2118 67.7408 79.1948C69.5934 78.9689 70.9057 77.3195 70.6759 75.5108C69.9151 69.4564 67.2447 63.7825 63.0322 59.2769C65.9356 56.4315 68.316 53.1203 70.072 49.4874C76.2862 49.0851 81.1167 44.0472 81.1215 37.968L81.1183 37.9664ZM68.4333 42.8279C66.8041 42.5371 65.2003 43.4484 64.6567 44.9771C61.5599 53.552 51.1301 62.7227 40.5466 62.7227C29.9631 62.7227 19.5333 53.5458 16.4365 44.9709C15.8913 43.4438 14.2891 42.5324 12.6599 42.8218C12.3794 42.8759 12.0941 42.9069 11.8072 42.9177C9.00683 42.8852 6.7627 40.6417 6.79599 37.9077C6.82451 35.562 8.53613 33.5583 10.8944 33.108C12.3714 32.8466 13.4935 31.666 13.6536 30.21C14.5696 21.6428 19.7298 14.0581 27.4622 9.90993C26.9091 12.0096 26.8837 14.2082 27.3877 16.3202C29.1326 23.4098 36.4355 27.7762 43.6972 26.0726C48.2505 25.0035 51.913 21.7125 53.3806 17.3708C53.9083 15.6657 52.9226 13.8663 51.1761 13.3495C50.8544 13.2551 50.5215 13.2087 50.1856 13.2118H49.6752C48.3994 13.252 47.2964 14.0953 46.9509 15.2944C45.7734 18.7541 41.9444 20.6263 38.4007 19.4767C34.857 18.327 32.9394 14.5889 34.1169 11.1292C35.0377 8.4261 37.6289 6.60497 40.5466 6.60961C54.3838 6.57712 66.0022 16.7736 67.4396 30.21C67.5981 31.666 68.7218 32.8466 70.1988 33.108C72.9469 33.6326 74.7394 36.2335 74.2021 38.918C73.7409 41.2203 71.6886 42.8898 69.286 42.9192C69.0007 42.9115 68.7154 42.8821 68.4333 42.8295V42.8279Z" fill="#4099FF"/>
<path d="M32.0944 42.9177C34.8953 42.9177 37.1659 40.701 37.1659 37.9665C37.1659 35.232 34.8953 33.0153 32.0944 33.0153C29.2935 33.0153 27.0229 35.232 27.0229 37.9665C27.0229 40.701 29.2935 42.9177 32.0944 42.9177Z" fill="#4099FF"/>
<path d="M48.9987 42.9177C51.7996 42.9177 54.0702 40.701 54.0702 37.9665C54.0702 35.232 51.7996 33.0153 48.9987 33.0153C46.1978 33.0153 43.9272 35.232 43.9272 37.9665C43.9272 40.701 46.1978 42.9177 48.9987 42.9177Z" fill="#4099FF"/>
<path d="M169.058 37.9664C169.055 33.3123 166.189 29.1146 161.791 27.3182C158.569 9.36065 141.047 -2.64612 122.655 0.501018C108.628 2.90082 97.6436 13.6234 95.1871 27.3182C89.1632 29.7923 86.3342 36.5662 88.8684 42.4473C90.6022 46.4702 94.5104 49.1965 98.9701 49.4936C100.717 53.1111 103.084 56.4098 105.972 59.2475C101.74 63.7578 99.0557 69.444 98.2902 75.5139C98.0573 77.3226 99.3711 78.9736 101.224 79.201H101.225C101.365 79.218 101.504 79.2273 101.645 79.2273C103.347 79.2258 104.783 77.988 104.996 76.3386C105.609 71.5529 107.756 67.0798 111.132 63.5582C116.167 67.1865 122.231 69.201 128.486 69.3248C134.724 69.1995 140.77 67.1943 145.794 63.5814C149.155 67.0968 151.293 71.5575 151.907 76.3293C152.118 77.9802 153.553 79.218 155.257 79.2211C155.398 79.2211 155.539 79.2118 155.68 79.1948C157.533 78.9689 158.845 77.3195 158.615 75.5108C157.855 69.4564 155.184 63.7825 150.972 59.2769C153.875 56.4315 156.256 53.1203 158.011 49.4874C164.226 49.0851 169.056 44.0472 169.061 37.968L169.058 37.9664ZM156.373 42.8279C154.744 42.5371 153.14 43.4484 152.596 44.9771C149.499 53.552 139.07 62.7227 128.486 62.7227C117.903 62.7227 107.473 53.5458 104.376 44.9709C103.831 43.4438 102.229 42.5324 100.599 42.8218C100.319 42.8759 100.034 42.9069 99.7467 42.9177C96.9463 42.8852 94.7022 40.6417 94.7354 37.9077C94.764 35.562 96.4756 33.5583 98.8338 33.108C100.311 32.8466 101.433 31.666 101.593 30.21C102.509 21.6428 107.669 14.0581 115.402 9.90993C114.849 12.0096 114.823 14.2082 115.327 16.3202C117.072 23.4098 124.375 27.7762 131.637 26.0726C136.19 25.0035 139.852 21.7125 141.32 17.3708C141.848 15.6657 140.862 13.8663 139.116 13.3495C138.794 13.2551 138.461 13.2087 138.125 13.2118H137.615C136.339 13.252 135.236 14.0953 134.89 15.2944C133.713 18.7541 129.884 20.6263 126.34 19.4767C122.797 18.327 120.879 14.5889 122.056 11.1292C122.977 8.4261 125.568 6.60497 128.486 6.60961C142.323 6.57712 153.942 16.7736 155.379 30.21C155.538 31.666 156.661 32.8466 158.138 33.108C160.886 33.6326 162.679 36.2335 162.142 38.918C161.68 41.2203 159.628 42.8898 157.225 42.9192C156.94 42.9115 156.655 42.8821 156.373 42.8295V42.8279Z" fill="#4099FF"/>
<path d="M120.034 42.9177C122.835 42.9177 125.106 40.701 125.106 37.9665C125.106 35.232 122.835 33.0153 120.034 33.0153C117.233 33.0153 114.963 35.232 114.963 37.9665C114.963 40.701 117.233 42.9177 120.034 42.9177Z" fill="#4099FF"/>
<path d="M136.938 42.9177C139.739 42.9177 142.01 40.701 142.01 37.9665C142.01 35.232 139.739 33.0153 136.938 33.0153C134.137 33.0153 131.867 35.232 131.867 37.9665C131.867 40.701 134.137 42.9177 136.938 42.9177Z" fill="#4099FF"/>
<path d="M256.997 37.9665C256.994 33.3123 254.128 29.1146 249.73 27.3182C246.508 9.36224 228.986 -2.64452 210.594 0.501062C196.567 2.90087 185.583 13.6234 183.126 27.3182C177.102 29.7923 174.273 36.5662 176.807 42.4474C178.541 46.4703 182.449 49.1965 186.909 49.4936C188.656 53.1111 191.023 56.4099 193.911 59.2476C189.679 63.7578 186.995 69.444 186.229 75.5139C185.996 77.3227 187.31 78.9736 189.163 79.2011H189.164C189.304 79.2181 189.443 79.2274 189.584 79.2274C191.286 79.2258 192.722 77.988 192.935 76.3386C193.548 71.5529 195.695 67.0798 199.071 63.5582C204.106 67.1866 210.17 69.2011 216.425 69.3249C222.663 69.1996 228.709 67.1943 233.733 63.5814C237.094 67.0968 239.232 71.5576 239.846 76.3293C240.056 77.9803 241.492 79.2181 243.196 79.2212C243.337 79.2212 243.478 79.2119 243.619 79.1949C245.472 78.969 246.784 77.3196 246.554 75.5108C245.794 69.4564 243.123 63.7826 238.911 59.277C241.814 56.4315 244.194 53.1204 245.95 49.4874C252.165 49.0851 256.995 44.0472 257 37.968L256.997 37.9665ZM244.312 42.828C242.683 42.5371 241.079 43.4485 240.535 44.9771C237.438 53.5521 227.009 62.7227 216.425 62.7227C205.841 62.7227 195.412 53.5459 192.315 44.971C191.77 43.4438 190.167 42.5325 188.538 42.8218C188.258 42.876 187.973 42.9069 187.686 42.9177C184.885 42.8852 182.641 40.6417 182.674 37.9077C182.703 35.562 184.415 33.5583 186.773 33.1081C188.25 32.8466 189.372 31.666 189.532 30.2101C190.448 21.6429 195.608 14.0582 203.341 9.90997C202.788 12.0096 202.762 14.2083 203.266 16.3203C205.011 23.4098 212.314 27.7762 219.576 26.0727C224.129 25.0035 227.791 21.7125 229.259 17.3709C229.787 15.6658 228.801 13.8663 227.054 13.3495C226.733 13.2552 226.4 13.2087 226.064 13.2118H225.554C224.278 13.2521 223.175 14.0953 222.829 15.2944C221.652 18.7541 217.823 20.6263 214.279 19.4767C210.735 18.3271 208.818 14.5889 209.995 11.1292C210.916 8.42614 213.507 6.60502 216.425 6.60966C230.262 6.57717 241.881 16.7736 243.318 30.2101C243.477 31.666 244.6 32.8466 246.077 33.1081C248.825 33.6326 250.618 36.2336 250.081 38.9181C249.619 41.2204 247.567 42.8899 245.164 42.9193C244.879 42.9116 244.594 42.8822 244.312 42.8295V42.828Z" fill="#F39838"/>
<path d="M207.973 42.9179C210.774 42.9179 213.045 40.7011 213.045 37.9666C213.045 35.2321 210.774 33.0154 207.973 33.0154C205.172 33.0154 202.902 35.2321 202.902 37.9666C202.902 40.7011 205.172 42.9179 207.973 42.9179Z" fill="#F39838"/>
<path d="M224.879 42.9179C227.679 42.9179 229.95 40.7011 229.95 37.9666C229.95 35.2321 227.679 33.0154 224.879 33.0154C222.078 33.0154 219.807 35.2321 219.807 37.9666C219.807 40.7011 222.078 42.9179 224.879 42.9179Z" fill="#F39838"/>
<path d="M222.888 0.604781C218.942 -0.145642 214.791 -0.216816 210.594 0.501114C196.567 2.90092 185.583 13.6235 183.126 27.3183C177.102 29.7924 174.273 36.5663 176.807 42.4474C178.541 46.4703 182.449 49.1966 186.909 49.4937C188.656 53.1112 191.023 56.4099 193.911 59.2476C189.679 63.7579 186.995 69.4441 186.229 75.514C185.996 77.3227 187.31 78.9737 189.163 79.2011H189.164C189.304 79.2181 189.443 79.2274 189.584 79.2274C191.286 79.2259 192.722 77.9881 192.935 76.3387C193.548 71.553 195.695 67.0799 199.071 63.5583C204.106 67.1866 210.17 69.2012 216.425 69.3249C218.615 69.2816 220.782 69.0062 222.888 68.5095V61.6397C220.782 62.3344 218.607 62.7228 216.425 62.7228C205.843 62.7228 195.412 53.5459 192.315 44.971C191.77 43.4439 190.167 42.5325 188.538 42.8219C188.258 42.876 187.973 42.907 187.686 42.9178C184.885 42.8853 182.641 40.6418 182.674 37.9078C182.703 35.5621 184.415 33.5584 186.773 33.1081C188.25 32.8467 189.372 31.6661 189.532 30.2101C190.448 21.6429 195.608 14.0582 203.341 9.91002C202.788 12.0097 202.762 14.2083 203.266 16.3203C205.011 23.4099 212.314 27.7763 219.576 26.0727C220.714 25.8051 221.796 25.3997 222.804 24.8721L222.829 15.293C221.652 18.7526 217.823 20.6248 214.279 19.4752C210.735 18.3256 208.818 14.5874 209.995 11.1277C210.916 8.42465 213.507 6.60352 216.425 6.60816C218.647 6.60352 220.813 6.86191 222.888 7.35549" fill="#4099FF"/>
<path d="M207.973 42.9177C210.774 42.9177 213.045 40.701 213.045 37.9665C213.045 35.232 210.774 33.0153 207.973 33.0153C205.172 33.0153 202.902 35.232 202.902 37.9665C202.902 40.701 205.172 42.9177 207.973 42.9177Z" fill="#4099FF"/>
<path d="M222.904 42.5279C221.083 41.776 219.807 40.0167 219.807 37.9651C219.807 35.9134 221.077 34.165 222.89 33.4099" fill="#4099FF"/>
</svg>
