<svg width="857" height="461" viewBox="0 0 857 461" fill="none" xmlns="http://www.w3.org/2000/svg">
<g clip-path="url(#clip0_2_26)">
<path d="M693.456 247.787C693.456 336.899 574.831 409.137 428.5 409.137C282.169 409.137 163.544 336.899 163.544 247.787V213.212C163.544 302.324 282.169 374.562 428.5 374.562C574.831 374.562 693.456 302.324 693.456 213.212V247.787Z" fill="#3A5EAB"/>
<path d="M510.202 149.706C542.254 164.998 560.978 188.417 560.978 213.212V247.788C560.978 222.992 542.254 199.573 510.202 184.281V149.706Z" fill="#3A5EAB"/>
<path d="M296.022 213.212C296.022 183.226 323.333 155.714 366.934 141.778V176.353C323.333 190.289 296.022 217.801 296.022 247.787V213.212Z" fill="#3A5EAB"/>
<path d="M591.903 86.2005C684.355 130.309 718.092 206.217 674.791 272.7C631.49 339.183 521.486 380.373 404.522 373.9C287.557 367.428 191.548 314.837 168.635 244.69C145.723 174.543 201.375 103.582 305.369 70.3442L366.934 141.778C314.938 158.397 287.111 193.878 298.568 228.951C310.024 264.025 358.029 290.32 416.511 293.556C474.993 296.793 529.995 276.198 551.645 242.956C573.296 209.715 556.427 171.761 510.202 149.706L591.903 86.2005Z" fill="#5386F4"/>
<path d="M402 337.314C401.271 337.081 400.728 336.751 400.37 336.324C400.028 335.897 399.857 335.379 399.857 334.771C399.857 333.865 400.229 333.107 400.973 332.499C401.732 331.878 402.729 331.567 403.964 331.567C405.213 331.567 406.218 331.884 406.976 332.518C407.75 333.153 408.137 333.923 408.137 334.829C408.137 335.398 407.958 335.897 407.601 336.324C407.259 336.751 406.731 337.081 406.017 337.314C406.895 337.56 407.564 337.961 408.025 338.518C408.487 339.074 408.717 339.741 408.717 340.518C408.717 341.579 408.286 342.472 407.423 343.197C406.56 343.922 405.422 344.284 404.008 344.284C402.595 344.284 401.449 343.922 400.571 343.197C399.708 342.459 399.277 341.547 399.277 340.459C399.277 339.657 399.515 338.984 399.991 338.44C400.467 337.884 401.137 337.508 402 337.314ZM401.665 334.732C401.665 335.314 401.881 335.793 402.312 336.169C402.744 336.544 403.309 336.732 404.008 336.732C404.693 336.732 405.251 336.55 405.682 336.188C406.114 335.813 406.329 335.353 406.329 334.809C406.329 334.253 406.106 333.787 405.66 333.412C405.213 333.023 404.655 332.829 403.986 332.829C403.316 332.829 402.758 333.017 402.312 333.392C401.881 333.755 401.665 334.201 401.665 334.732ZM401.085 340.479C401.085 340.919 401.204 341.346 401.442 341.76C401.68 342.161 402.029 342.472 402.491 342.692C402.967 342.912 403.48 343.022 404.031 343.022C404.864 343.022 405.548 342.789 406.084 342.323C406.634 341.857 406.91 341.262 406.91 340.537C406.91 339.799 406.627 339.191 406.061 338.712C405.511 338.22 404.812 337.974 403.964 337.974C403.13 337.974 402.439 338.214 401.888 338.693C401.352 339.171 401.085 339.767 401.085 340.479ZM410.726 340.809L412.578 340.673C412.712 341.45 413.025 342.038 413.516 342.44C414.021 342.828 414.624 343.022 415.323 343.022C416.171 343.022 416.886 342.744 417.466 342.187C418.061 341.631 418.358 340.899 418.358 339.993C418.358 339.113 418.076 338.421 417.51 337.916C416.945 337.411 416.209 337.159 415.301 337.159C414.736 337.159 414.222 337.275 413.761 337.508C413.315 337.728 412.958 338.013 412.69 338.362L411.038 338.188L412.422 331.781H419.541V333.256H413.828L413.069 336.596C413.932 336.078 414.832 335.819 415.77 335.819C417.019 335.819 418.068 336.194 418.916 336.945C419.779 337.696 420.211 338.667 420.211 339.857C420.211 340.984 419.839 341.954 419.095 342.77C418.173 343.779 416.915 344.284 415.323 344.284C414.029 344.284 412.965 343.967 412.132 343.333C411.314 342.699 410.845 341.857 410.726 340.809Z" fill="#5386F4"/>
<path d="M313.35 441.8C304.55 441.8 296.85 440.5 290.25 437.9C283.65 435.2 278.5 431.45 274.8 426.65C271.1 421.75 269.25 416.05 269.25 409.55C269.25 403.05 271.05 397.55 274.65 393.05C278.35 388.45 283.5 385 290.1 382.7C296.7 380.3 304.45 379.1 313.35 379.1C322.35 379.1 330.15 380.3 336.75 382.7C343.45 385 348.6 388.45 352.2 393.05C355.9 397.55 357.75 403.05 357.75 409.55C357.75 416.05 355.9 421.75 352.2 426.65C348.5 431.45 343.3 435.2 336.6 437.9C330 440.5 322.25 441.8 313.35 441.8ZM313.35 423.95C319.45 423.95 324.25 422.6 327.75 419.9C331.35 417.2 333.15 413.5 333.15 408.8C333.15 404.1 331.35 400.45 327.75 397.85C324.25 395.15 319.45 393.8 313.35 393.8C307.35 393.8 302.6 395.15 299.1 397.85C295.6 400.45 293.85 404.1 293.85 408.8C293.85 413.5 295.6 417.2 299.1 419.9C302.6 422.6 307.35 423.95 313.35 423.95ZM313.35 391.4C305.25 391.4 298.15 390.3 292.05 388.1C286.05 385.9 281.35 382.7 277.95 378.5C274.65 374.2 273 369.1 273 363.2C273 357 274.7 351.7 278.1 347.3C281.5 342.8 286.25 339.35 292.35 336.95C298.45 334.45 305.45 333.2 313.35 333.2C321.45 333.2 328.5 334.45 334.5 336.95C340.6 339.35 345.35 342.8 348.75 347.3C352.25 351.7 354 357 354 363.2C354 369.1 352.3 374.2 348.9 378.5C345.6 382.7 340.9 385.9 334.8 388.1C328.7 390.3 321.55 391.4 313.35 391.4ZM313.35 377.15C318.45 377.15 322.45 376 325.35 373.7C328.35 371.4 329.85 368.25 329.85 364.25C329.85 360.05 328.3 356.8 325.2 354.5C322.2 352.2 318.25 351.05 313.35 351.05C308.55 351.05 304.65 352.2 301.65 354.5C298.65 356.8 297.15 360.05 297.15 364.25C297.15 368.25 298.6 371.4 301.5 373.7C304.4 376 308.35 377.15 313.35 377.15ZM412.373 441.8C403.573 441.8 395.873 440.5 389.273 437.9C382.673 435.2 377.523 431.45 373.823 426.65C370.123 421.75 368.273 416.05 368.273 409.55C368.273 403.05 370.073 397.55 373.673 393.05C377.373 388.45 382.523 385 389.123 382.7C395.723 380.3 403.473 379.1 412.373 379.1C421.373 379.1 429.173 380.3 435.773 382.7C442.473 385 447.623 388.45 451.223 393.05C454.923 397.55 456.773 403.05 456.773 409.55C456.773 416.05 454.923 421.75 451.223 426.65C447.523 431.45 442.323 435.2 435.623 437.9C429.023 440.5 421.273 441.8 412.373 441.8ZM412.373 423.95C418.473 423.95 423.273 422.6 426.773 419.9C430.373 417.2 432.173 413.5 432.173 408.8C432.173 404.1 430.373 400.45 426.773 397.85C423.273 395.15 418.473 393.8 412.373 393.8C406.373 393.8 401.623 395.15 398.123 397.85C394.623 400.45 392.873 404.1 392.873 408.8C392.873 413.5 394.623 417.2 398.123 419.9C401.623 422.6 406.373 423.95 412.373 423.95ZM412.373 391.4C404.273 391.4 397.173 390.3 391.073 388.1C385.073 385.9 380.373 382.7 376.973 378.5C373.673 374.2 372.023 369.1 372.023 363.2C372.023 357 373.723 351.7 377.123 347.3C380.523 342.8 385.273 339.35 391.373 336.95C397.473 334.45 404.473 333.2 412.373 333.2C420.473 333.2 427.523 334.45 433.523 336.95C439.623 339.35 444.373 342.8 447.773 347.3C451.273 351.7 453.023 357 453.023 363.2C453.023 369.1 451.323 374.2 447.923 378.5C444.623 382.7 439.923 385.9 433.823 388.1C427.723 390.3 420.573 391.4 412.373 391.4ZM412.373 377.15C417.473 377.15 421.473 376 424.373 373.7C427.373 371.4 428.873 368.25 428.873 364.25C428.873 360.05 427.323 356.8 424.223 354.5C421.223 352.2 417.273 351.05 412.373 351.05C407.573 351.05 403.673 352.2 400.673 354.5C397.673 356.8 396.173 360.05 396.173 364.25C396.173 368.25 397.623 371.4 400.523 373.7C403.423 376 407.373 377.15 412.373 377.15ZM481.582 440L553.282 335H571.132L499.432 440H481.582ZM490.732 391.7C485.632 391.7 481.132 390.55 477.232 388.25C473.332 385.85 470.232 382.5 467.932 378.2C465.732 373.8 464.632 368.65 464.632 362.75C464.632 356.85 465.732 351.75 467.932 347.45C470.232 343.15 473.332 339.8 477.232 337.4C481.132 335 485.632 333.8 490.732 333.8C495.832 333.8 500.332 335 504.232 337.4C508.132 339.8 511.182 343.15 513.382 347.45C515.582 351.75 516.682 356.85 516.682 362.75C516.682 368.65 515.582 373.8 513.382 378.2C511.182 382.5 508.132 385.85 504.232 388.25C500.332 390.55 495.832 391.7 490.732 391.7ZM490.732 379.4C494.032 379.4 496.682 378.05 498.682 375.35C500.682 372.55 501.682 368.35 501.682 362.75C501.682 357.15 500.682 353 498.682 350.3C496.682 347.5 494.032 346.1 490.732 346.1C487.532 346.1 484.882 347.5 482.782 350.3C480.782 353 479.782 357.15 479.782 362.75C479.782 368.25 480.782 372.4 482.782 375.2C484.882 378 487.532 379.4 490.732 379.4ZM561.982 441.2C556.982 441.2 552.482 440.05 548.482 437.75C544.582 435.35 541.532 432 539.332 427.7C537.132 423.3 536.032 418.15 536.032 412.25C536.032 406.35 537.132 401.25 539.332 396.95C541.532 392.65 544.582 389.3 548.482 386.9C552.482 384.5 556.982 383.3 561.982 383.3C567.182 383.3 571.732 384.5 575.632 386.9C579.532 389.3 582.582 392.65 584.782 396.95C586.982 401.25 588.082 406.35 588.082 412.25C588.082 418.15 586.982 423.3 584.782 427.7C582.582 432 579.532 435.35 575.632 437.75C571.732 440.05 567.182 441.2 561.982 441.2ZM561.982 428.9C565.282 428.9 567.932 427.55 569.932 424.85C571.932 422.05 572.932 417.85 572.932 412.25C572.932 406.75 571.932 402.6 569.932 399.8C567.932 397 565.282 395.6 561.982 395.6C558.782 395.6 556.132 397 554.032 399.8C552.032 402.5 551.032 406.65 551.032 412.25C551.032 417.85 552.032 422.05 554.032 424.85C556.132 427.55 558.782 428.9 561.982 428.9Z" fill="#1E1E1E"/>
</g>
<defs>
<clipPath id="clip0_2_26">
<rect width="857" height="461" fill="white"/>
</clipPath>
</defs>
</svg>
