<svg width="204" height="85" viewBox="0 0 204 85" fill="none" xmlns="http://www.w3.org/2000/svg">
<path d="M28.138 41.6296C38.4986 41.6296 46.8975 33.4298 46.8975 23.3149C46.8975 13.1999 38.4986 5 28.138 5C17.7774 5 9.37842 13.1999 9.37842 23.3149C9.38852 33.4249 17.7812 41.6186 28.138 41.6296ZM28.138 11.1058C35.045 11.1058 40.6435 16.5716 40.6435 23.3149C40.6435 30.0582 35.045 35.5239 28.138 35.5239C21.2309 35.5239 15.6324 30.0582 15.6324 23.3149C15.6324 16.5716 21.2309 11.1058 28.138 11.1058Z" fill="#4099FF"/>
<path d="M28.1381 47.7342C12.6047 47.7514 0.0163258 60.0401 0 75.2053C0 76.8911 1.40025 78.2582 3.12701 78.2582C4.85377 78.2582 6.25403 76.8911 6.25403 75.2053C6.25403 63.4044 16.052 53.8387 28.1393 53.8387C40.2267 53.8387 50.0246 63.4044 50.0246 75.2053C50.0246 76.8911 51.4249 78.2582 53.1516 78.2582C54.8785 78.2582 56.2786 76.8911 56.2786 75.2053C56.261 60.0401 43.6739 47.7502 28.1406 47.7342H28.1381Z" fill="#4099FF"/>
<path d="M101.998 41.6296C112.359 41.6296 120.758 33.4298 120.758 23.3149C120.758 13.1999 112.359 5 101.998 5C91.6379 5 83.2389 13.1999 83.2389 23.3149C83.249 33.4249 91.6417 41.6186 101.998 41.6296ZM101.998 11.1058C108.906 11.1058 114.504 16.5716 114.504 23.3149C114.504 30.0582 108.906 35.5239 101.998 35.5239C95.0912 35.5239 89.493 30.0582 89.493 23.3149C89.493 16.5716 95.0912 11.1058 101.998 11.1058Z" fill="#4099FF"/>
<path d="M101.998 47.7342C86.4652 47.7514 73.8768 60.0401 73.8605 75.2053C73.8605 76.8911 75.2608 78.2582 76.9875 78.2582C78.7143 78.2582 80.1145 76.8911 80.1145 75.2053C80.1145 63.4044 89.9124 53.8387 102 53.8387C114.087 53.8387 123.885 63.4044 123.885 75.2053C123.885 76.8911 125.286 78.2582 127.012 78.2582C128.739 78.2582 130.139 76.8911 130.139 75.2053C130.121 60.0401 117.534 47.7502 102.001 47.7342H101.998Z" fill="#4099FF"/>
<path d="M175.859 41.6296C186.22 41.6296 194.619 33.4298 194.619 23.3149C194.619 13.1999 186.22 5 175.859 5C165.499 5 157.1 13.1999 157.1 23.3149C157.11 33.4249 165.503 41.6186 175.859 41.6296ZM175.859 11.1058C182.766 11.1058 188.365 16.5716 188.365 23.3149C188.365 30.0582 182.766 35.5239 175.859 35.5239C168.952 35.5239 163.354 30.0582 163.354 23.3149C163.354 16.5716 168.952 11.1058 175.859 11.1058Z" fill="#F39838"/>
<path d="M175.859 47.7342C160.326 47.7514 147.738 60.0401 147.721 75.2053C147.721 76.8911 149.122 78.2582 150.849 78.2582C152.575 78.2582 153.976 76.8911 153.976 75.2053C153.976 63.4044 163.773 53.8387 175.861 53.8387C187.948 53.8387 197.746 63.4044 197.746 75.2053C197.746 76.8911 199.147 78.2582 200.874 78.2582C202.6 78.2582 204 76.8911 204 75.2053C203.982 60.0401 191.395 47.7502 175.862 47.7342H175.859Z" fill="#F39838"/>
<path d="M183.214 33.1907C181.149 34.6584 178.607 35.5239 175.858 35.5239C168.951 35.5239 163.352 30.0582 163.352 23.3149C163.352 16.5716 168.951 11.1058 175.858 11.1058C178.447 11.1058 180.854 11.8745 182.85 13.1913C182.981 13.2771 183.11 13.3654 183.236 13.4561L183.214 6.4627C180.956 5.52232 178.469 5.00124 175.859 5.00124C165.499 5.00124 157.1 13.2011 157.1 23.3161C157.11 33.4261 165.503 41.6199 175.859 41.6309C178.449 41.6309 180.917 41.1184 183.161 40.1916L183.214 33.1919V33.1907Z" fill="#4099FF"/>
<path d="M183.214 48.6893C180.869 48.0689 178.404 47.7366 175.859 47.7342C160.326 47.7514 147.738 60.0401 147.721 75.2053C147.721 76.8911 149.122 78.2582 150.849 78.2582C152.575 78.2582 153.976 76.8911 153.976 75.2053C153.976 63.4044 163.773 53.8387 175.861 53.8387C178.442 53.8387 180.917 54.2752 183.216 55.0759V48.6893H183.214Z" fill="#4099FF"/>
</svg>
