<svg width="857" height="461" viewBox="0 0 857 461" fill="none" xmlns="http://www.w3.org/2000/svg">
<g clip-path="url(#clip0_1_9)">
<path d="M693.456 247.788C693.456 336.899 574.831 409.138 428.5 409.138C282.169 409.138 163.544 336.899 163.544 247.788V213.213C163.544 302.324 282.169 374.563 428.5 374.563C574.831 374.563 693.456 302.324 693.456 213.213V247.788Z" fill="#2E5DAB"/>
<path d="M428.5 132.537C501.666 132.537 560.978 168.657 560.978 213.212V247.787C560.978 203.232 501.666 167.112 428.5 167.112V132.537Z" fill="#2E5DAB"/>
<path d="M296.022 213.213C296.022 187.388 316.324 163.124 350.631 147.945V182.52C316.324 197.699 296.022 221.963 296.022 247.788V213.213Z" fill="#2E5DAB"/>
<path d="M428.5 51.8625C558.83 51.8625 669.806 109.582 690.194 187.972C710.582 266.362 634.327 342.14 510.376 366.665C386.425 391.191 251.591 357.18 192.423 286.464C133.254 215.747 167.324 129.328 272.763 82.6776L350.631 147.945C297.912 171.27 280.877 214.48 310.461 249.838C340.046 285.196 407.462 302.202 469.438 289.939C531.413 277.676 569.541 239.787 559.347 200.592C549.153 161.397 493.665 132.538 428.5 132.538V51.8625Z" fill="#4285F4"/>
<path d="M306.75 337.2C316.45 337.2 324.8 339.2 331.8 343.2C338.8 347.2 344.2 353.05 348 360.75C351.8 368.35 353.7 377.85 353.7 389.25C353.7 401.35 351.4 411.6 346.8 420C342.3 428.4 336.05 434.8 328.05 439.2C320.05 443.6 310.75 445.8 300.15 445.8C294.65 445.8 289.35 445.2 284.25 444C279.15 442.8 274.75 441 271.05 438.6L280.05 420.75C282.95 422.75 286.05 424.15 289.35 424.95C292.65 425.65 296.1 426 299.7 426C308.7 426 315.85 423.25 321.15 417.75C326.55 412.25 329.25 404.1 329.25 393.3C329.25 391.5 329.2 389.5 329.1 387.3C329 385.1 328.75 382.9 328.35 380.7L334.95 387C333.25 390.9 330.85 394.2 327.75 396.9C324.65 399.5 321.05 401.5 316.95 402.9C312.85 404.2 308.25 404.85 303.15 404.85C296.45 404.85 290.35 403.5 284.85 400.8C279.45 398.1 275.1 394.3 271.8 389.4C268.6 384.5 267 378.75 267 372.15C267 364.95 268.75 358.75 272.25 353.55C275.85 348.35 280.65 344.35 286.65 341.55C292.75 338.65 299.45 337.2 306.75 337.2ZM308.25 355.35C304.75 355.35 301.7 356 299.1 357.3C296.5 358.5 294.45 360.3 292.95 362.7C291.45 365 290.7 367.75 290.7 370.95C290.7 375.75 292.3 379.6 295.5 382.5C298.8 385.3 303.15 386.7 308.55 386.7C312.05 386.7 315.15 386.05 317.85 384.75C320.65 383.35 322.8 381.45 324.3 379.05C325.8 376.65 326.55 373.95 326.55 370.95C326.55 367.95 325.8 365.3 324.3 363C322.9 360.6 320.85 358.75 318.15 357.45C315.45 356.05 312.15 355.35 308.25 355.35ZM410.358 445.8C401.758 445.8 394.058 443.7 387.258 439.5C380.458 435.2 375.108 429 371.208 420.9C367.308 412.8 365.358 403 365.358 391.5C365.358 380 367.308 370.2 371.208 362.1C375.108 354 380.458 347.85 387.258 343.65C394.058 339.35 401.758 337.2 410.358 337.2C419.058 337.2 426.758 339.35 433.458 343.65C440.258 347.85 445.608 354 449.508 362.1C453.408 370.2 455.358 380 455.358 391.5C455.358 403 453.408 412.8 449.508 420.9C445.608 429 440.258 435.2 433.458 439.5C426.758 443.7 419.058 445.8 410.358 445.8ZM410.358 425.25C414.458 425.25 418.008 424.1 421.008 421.8C424.108 419.5 426.508 415.85 428.208 410.85C430.008 405.85 430.908 399.4 430.908 391.5C430.908 383.6 430.008 377.15 428.208 372.15C426.508 367.15 424.108 363.5 421.008 361.2C418.008 358.9 414.458 357.75 410.358 357.75C406.358 357.75 402.808 358.9 399.708 361.2C396.708 363.5 394.308 367.15 392.508 372.15C390.808 377.15 389.958 383.6 389.958 391.5C389.958 399.4 390.808 405.85 392.508 410.85C394.308 415.85 396.708 419.5 399.708 421.8C402.808 424.1 406.358 425.25 410.358 425.25ZM482.314 444L554.014 339H571.864L500.164 444H482.314ZM491.464 395.7C486.364 395.7 481.864 394.55 477.964 392.25C474.064 389.85 470.964 386.5 468.664 382.2C466.464 377.8 465.364 372.65 465.364 366.75C465.364 360.85 466.464 355.75 468.664 351.45C470.964 347.15 474.064 343.8 477.964 341.4C481.864 339 486.364 337.8 491.464 337.8C496.564 337.8 501.064 339 504.964 341.4C508.864 343.8 511.914 347.15 514.114 351.45C516.314 355.75 517.414 360.85 517.414 366.75C517.414 372.65 516.314 377.8 514.114 382.2C511.914 386.5 508.864 389.85 504.964 392.25C501.064 394.55 496.564 395.7 491.464 395.7ZM491.464 383.4C494.764 383.4 497.414 382.05 499.414 379.35C501.414 376.55 502.414 372.35 502.414 366.75C502.414 361.15 501.414 357 499.414 354.3C497.414 351.5 494.764 350.1 491.464 350.1C488.264 350.1 485.614 351.5 483.514 354.3C481.514 357 480.514 361.15 480.514 366.75C480.514 372.25 481.514 376.4 483.514 379.2C485.614 382 488.264 383.4 491.464 383.4ZM562.714 445.2C557.714 445.2 553.214 444.05 549.214 441.75C545.314 439.35 542.264 436 540.064 431.7C537.864 427.3 536.764 422.15 536.764 416.25C536.764 410.35 537.864 405.25 540.064 400.95C542.264 396.65 545.314 393.3 549.214 390.9C553.214 388.5 557.714 387.3 562.714 387.3C567.914 387.3 572.464 388.5 576.364 390.9C580.264 393.3 583.314 396.65 585.514 400.95C587.714 405.25 588.814 410.35 588.814 416.25C588.814 422.15 587.714 427.3 585.514 431.7C583.314 436 580.264 439.35 576.364 441.75C572.464 444.05 567.914 445.2 562.714 445.2ZM562.714 432.9C566.014 432.9 568.664 431.55 570.664 428.85C572.664 426.05 573.664 421.85 573.664 416.25C573.664 410.75 572.664 406.6 570.664 403.8C568.664 401 566.014 399.6 562.714 399.6C559.514 399.6 556.864 401 554.764 403.8C552.764 406.5 551.764 410.65 551.764 416.25C551.764 421.85 552.764 426.05 554.764 428.85C556.864 431.55 559.514 432.9 562.714 432.9Z" fill="#1E1E1E"/>
</g>
<defs>
<clipPath id="clip0_1_9">
<rect width="857" height="461" fill="white"/>
</clipPath>
</defs>
</svg>
