<svg width="260" height="80" viewBox="0 0 260 80" fill="none" xmlns="http://www.w3.org/2000/svg">
<path d="M83.6545 29.2904C82.1898 24.7391 77.8463 21.6627 72.9612 21.7137H57.728L53.101 7.63463C51.204 1.85739 44.87 -1.3242 38.9525 0.527862C35.4925 1.61003 32.7816 4.25826 31.6731 7.63463L27.0462 21.7137H11.8129C5.60087 21.7229 0.570102 26.6484 0.579603 32.7147C0.584354 36.2132 2.2977 39.5015 5.19074 41.5669L17.5895 50.4175L12.8754 64.6697C11.311 69.2086 12.991 74.2128 17.0036 76.9677C20.9481 79.8107 26.3383 79.7845 30.2527 76.9028L42.3886 68.1821L54.5293 76.892C59.5347 80.4863 66.5781 79.4397 70.2598 74.5514C72.4038 71.7068 73.015 68.029 71.9034 64.6681L67.1894 50.4159L79.6008 41.5653C83.577 38.795 85.2238 33.8077 83.6561 29.2904H83.6545ZM75.4869 36.0679L61.0391 46.3779C59.8214 47.2452 59.313 48.7772 59.777 50.1763L65.2686 66.7536C65.9938 68.9489 64.7587 71.3034 62.5101 72.0114C61.2006 72.4242 59.7691 72.1969 58.6607 71.4007L44.4535 61.1897C43.2247 60.3085 41.5541 60.3085 40.3254 61.1897L26.1182 71.4007C24.2244 72.7797 21.5435 72.3994 20.131 70.552C19.2981 69.4637 19.0606 68.046 19.4945 66.7551L25.0034 50.1778C25.4674 48.7787 24.9591 47.2467 23.7414 46.3794L9.29358 36.0694C7.38705 34.7074 6.97376 32.0932 8.36882 30.2319C9.17323 29.159 10.4543 28.5236 11.8177 28.5221H29.5987C31.1126 28.5221 32.4538 27.5667 32.9178 26.1598L38.3222 9.7155C39.0459 7.52024 41.456 6.31284 43.7045 7.01934C45.0157 7.43212 46.0434 8.43544 46.4661 9.7155L51.8706 26.1598C52.3346 27.5682 53.6758 28.5221 55.1896 28.5221H72.9707C75.3333 28.5236 77.2477 30.3942 77.2461 32.7023C77.2461 34.0334 76.5953 35.2825 75.4948 36.0694H75.4885L75.4869 36.0679Z" fill="#4099FF"/>
<path d="M258.833 29.2904C257.369 24.7391 253.025 21.6627 248.14 21.7137H232.907L228.28 7.63463C226.383 1.85739 220.049 -1.3242 214.131 0.527862C210.671 1.61003 207.96 4.25826 206.852 7.63463L202.225 21.7137H186.992C180.778 21.7229 175.747 26.6468 175.757 32.7132C175.762 36.2117 177.475 39.4999 180.368 41.5653L192.767 50.4159L188.053 64.6681C186.488 69.207 188.168 74.2113 192.181 76.9662C196.125 79.8092 201.516 79.7829 205.43 76.9013L217.566 68.1805L229.707 76.8904C234.712 80.4848 241.755 79.4382 245.437 74.5499C247.581 71.7053 248.192 68.0275 247.081 64.6666L242.367 50.4144L254.778 41.5638C258.754 38.7934 260.401 33.8062 258.833 29.2889V29.2904ZM250.664 36.0679L236.216 46.3779C234.999 47.2452 234.49 48.7772 234.954 50.1763L240.446 66.7536C241.171 68.9489 239.936 71.3034 237.687 72.0114C236.378 72.4242 234.946 72.1969 233.838 71.4007L219.631 61.1897C218.402 60.3085 216.731 60.3085 215.503 61.1897L201.295 71.4007C199.402 72.7797 196.721 72.3994 195.308 70.552C194.475 69.4637 194.238 68.046 194.672 66.7552L200.181 50.1778C200.645 48.7788 200.136 47.2467 198.919 46.3794L184.471 36.0694C182.564 34.7074 182.151 32.0932 183.546 30.2319C184.35 29.159 185.632 28.5236 186.995 28.5221H204.776C206.29 28.5221 207.631 27.5667 208.095 26.1598L213.499 9.7155C214.223 7.52024 216.633 6.31284 218.882 7.01935C220.193 7.43212 221.221 8.43544 221.643 9.7155L227.048 26.1598C227.512 27.5682 228.853 28.5221 230.367 28.5221H248.148C250.511 28.5236 252.425 30.3942 252.423 32.7023C252.423 34.0334 251.773 35.2825 250.672 36.0694H250.666L250.664 36.0679Z" fill="#F39838"/>
<path d="M171.244 29.2904C169.779 24.7391 165.436 21.6627 160.551 21.7137H145.317L140.69 7.63463C138.793 1.85739 132.459 -1.3242 126.542 0.527862C123.082 1.61003 120.371 4.25826 119.263 7.63463L114.636 21.7137H99.4024C93.1888 21.7229 88.158 26.6468 88.1675 32.7132C88.1722 36.2117 89.8856 39.4999 92.7786 41.5653L105.177 50.4159L100.463 64.6681C98.8988 69.207 100.579 74.2113 104.592 76.9662C108.536 79.8092 113.926 79.7829 117.841 76.9013L129.977 68.1805L142.117 76.8904C147.123 80.4848 154.166 79.4382 157.848 74.5499C159.992 71.7053 160.603 68.0275 159.491 64.6666L154.777 50.4144L167.189 41.5638C171.165 38.7934 172.812 33.8062 171.244 29.2889V29.2904ZM163.075 36.0679L148.627 46.3779C147.409 47.2452 146.901 48.7772 147.365 50.1763L152.856 66.7536C153.582 68.9489 152.347 71.3034 150.098 72.0114C148.788 72.4242 147.357 72.1969 146.249 71.4007L132.041 61.1897C130.813 60.3085 129.142 60.3085 127.913 61.1897L113.706 71.4007C111.812 72.7797 109.131 72.3994 107.719 70.552C106.886 69.4637 106.648 68.046 107.082 66.7552L112.591 50.1778C113.055 48.7788 112.547 47.2467 111.329 46.3794L96.8815 36.0694C94.9749 34.7074 94.5617 32.0932 95.9567 30.2319C96.7611 29.159 98.0422 28.5236 99.4056 28.5221H117.187C118.7 28.5221 120.042 27.5667 120.506 26.1598L125.91 9.7155C126.634 7.52024 129.044 6.31284 131.292 7.01935C132.604 7.43212 133.631 8.43544 134.054 9.7155L139.459 26.1598C139.922 27.5682 141.264 28.5221 142.778 28.5221H160.559C162.921 28.5236 164.836 30.3942 164.834 32.7023C164.834 34.0334 164.183 35.2825 163.083 36.0694H163.076L163.075 36.0679Z" fill="#4099FF"/>
<path d="M232.909 21.7137L219.555 61.1356C218.334 60.3085 216.706 60.3271 215.503 61.1897L201.296 71.4008C199.402 72.7798 196.721 72.3995 195.309 70.5521C194.476 69.4637 194.238 68.0461 194.672 66.7552L200.181 50.1779C200.645 48.7788 200.137 47.2467 198.919 46.3795L184.471 36.0695C182.565 34.7075 182.151 32.0933 183.546 30.2319C184.351 29.159 185.632 28.5237 186.995 28.5221H204.776C206.29 28.5221 207.631 27.5667 208.095 26.1599L213.5 9.71554C214.223 7.52028 216.634 6.31289 218.882 7.01939C219.123 7.09514 219.352 7.18944 219.571 7.30229L219.555 0.173887C217.802 -0.135304 215.948 -0.041004 214.133 0.527908C210.673 1.61008 207.962 4.25831 206.854 7.63468L202.227 21.7137H186.994C180.78 21.723 175.749 26.6469 175.759 32.7132C175.764 36.2117 177.477 39.5 180.37 41.5653L192.769 50.416L188.055 64.6682C186.49 69.2071 188.17 74.2113 192.183 76.9662C196.127 79.8092 201.518 79.783 205.432 76.9013L217.568 68.1806L219.56 69.609L219.557 61.1356L232.909 21.7137Z" fill="#4099FF"/>
</svg>
