<svg width="857" height="461" viewBox="0 0 857 461" fill="none" xmlns="http://www.w3.org/2000/svg">
<g clip-path="url(#clip0_2_16)">
<path d="M693.456 247.788C693.456 336.899 574.831 409.138 428.5 409.138C282.169 409.138 163.544 336.899 163.544 247.788V213.213C163.544 302.324 282.169 374.563 428.5 374.563C574.831 374.563 693.456 302.324 693.456 213.213V247.788Z" fill="#B36300"/>
<path d="M512.945 151.051C543.367 166.378 560.978 189.169 560.978 213.213V247.788C560.978 223.744 543.367 200.953 512.945 185.626V151.051Z" fill="#B36300"/>
<path d="M296.022 213.212C296.022 176.384 336.978 144.231 395.554 135.072V169.647C336.978 178.806 296.022 210.959 296.022 247.787V213.212Z" fill="#B36300"/>
<path d="M597.389 88.8902C691.781 136.443 720.332 217.202 666.438 284.197C612.543 351.191 490.256 386.951 370.702 370.677C251.147 354.403 165.501 290.339 163.577 215.747C161.653 141.154 243.952 75.4843 362.608 56.9316L395.554 135.072C336.226 144.348 295.076 177.183 296.038 214.48C297.001 251.776 339.824 283.808 399.601 291.945C459.378 300.081 520.522 282.202 547.469 248.705C574.416 215.207 560.14 174.828 512.945 151.051L597.389 88.8902Z" fill="#FF8D00"/>
<path d="M376.401 333.083C375.672 332.85 375.129 332.519 374.772 332.092C374.429 331.665 374.258 331.147 374.258 330.539C374.258 329.633 374.63 328.876 375.374 328.268C376.133 327.646 377.13 327.336 378.365 327.336C379.615 327.336 380.619 327.653 381.378 328.287C382.151 328.921 382.538 329.691 382.538 330.597C382.538 331.167 382.36 331.665 382.003 332.092C381.66 332.519 381.132 332.85 380.418 333.083C381.296 333.328 381.965 333.73 382.427 334.286C382.888 334.843 383.118 335.509 383.118 336.286C383.118 337.347 382.687 338.241 381.824 338.965C380.961 339.69 379.823 340.053 378.409 340.053C376.996 340.053 375.85 339.69 374.972 338.965C374.11 338.228 373.678 337.315 373.678 336.228C373.678 335.425 373.916 334.752 374.392 334.209C374.868 333.652 375.538 333.277 376.401 333.083ZM376.066 330.5C376.066 331.083 376.282 331.562 376.713 331.937C377.145 332.312 377.71 332.5 378.409 332.5C379.094 332.5 379.652 332.319 380.083 331.956C380.515 331.581 380.73 331.122 380.73 330.578C380.73 330.021 380.507 329.555 380.061 329.18C379.615 328.792 379.057 328.598 378.387 328.598C377.718 328.598 377.16 328.785 376.713 329.161C376.282 329.523 376.066 329.97 376.066 330.5ZM375.486 336.247C375.486 336.687 375.605 337.114 375.843 337.529C376.081 337.93 376.431 338.241 376.892 338.461C377.368 338.681 377.881 338.791 378.432 338.791C379.265 338.791 379.949 338.558 380.485 338.092C381.035 337.626 381.311 337.03 381.311 336.306C381.311 335.568 381.028 334.959 380.463 334.48C379.912 333.989 379.213 333.743 378.365 333.743C377.532 333.743 376.84 333.982 376.289 334.461C375.754 334.94 375.486 335.535 375.486 336.247ZM385.127 336.577L386.979 336.441C387.113 337.218 387.426 337.807 387.917 338.208C388.423 338.597 389.025 338.791 389.725 338.791C390.573 338.791 391.287 338.512 391.867 337.956C392.462 337.399 392.76 336.668 392.76 335.762C392.76 334.882 392.477 334.189 391.912 333.684C391.346 333.18 390.61 332.927 389.702 332.927C389.137 332.927 388.623 333.044 388.162 333.277C387.716 333.497 387.359 333.781 387.091 334.131L385.44 333.956L386.823 327.549H393.943V329.025H388.229L387.47 332.364C388.333 331.846 389.234 331.588 390.171 331.588C391.421 331.588 392.47 331.963 393.318 332.714C394.181 333.464 394.612 334.435 394.612 335.626C394.612 336.752 394.24 337.723 393.496 338.538C392.574 339.548 391.316 340.053 389.725 340.053C388.43 340.053 387.366 339.736 386.533 339.101C385.715 338.467 385.246 337.626 385.127 336.577Z" fill="#FF8D00"/>
<path d="M318.35 447.8C309.55 447.8 301.85 446.5 295.25 443.9C288.65 441.2 283.5 437.45 279.8 432.65C276.1 427.75 274.25 422.05 274.25 415.55C274.25 409.05 276.05 403.55 279.65 399.05C283.35 394.45 288.5 391 295.1 388.7C301.7 386.3 309.45 385.1 318.35 385.1C327.35 385.1 335.15 386.3 341.75 388.7C348.45 391 353.6 394.45 357.2 399.05C360.9 403.55 362.75 409.05 362.75 415.55C362.75 422.05 360.9 427.75 357.2 432.65C353.5 437.45 348.3 441.2 341.6 443.9C335 446.5 327.25 447.8 318.35 447.8ZM318.35 429.95C324.45 429.95 329.25 428.6 332.75 425.9C336.35 423.2 338.15 419.5 338.15 414.8C338.15 410.1 336.35 406.45 332.75 403.85C329.25 401.15 324.45 399.8 318.35 399.8C312.35 399.8 307.6 401.15 304.1 403.85C300.6 406.45 298.85 410.1 298.85 414.8C298.85 419.5 300.6 423.2 304.1 425.9C307.6 428.6 312.35 429.95 318.35 429.95ZM318.35 397.4C310.25 397.4 303.15 396.3 297.05 394.1C291.05 391.9 286.35 388.7 282.95 384.5C279.65 380.2 278 375.1 278 369.2C278 363 279.7 357.7 283.1 353.3C286.5 348.8 291.25 345.35 297.35 342.95C303.45 340.45 310.45 339.2 318.35 339.2C326.45 339.2 333.5 340.45 339.5 342.95C345.6 345.35 350.35 348.8 353.75 353.3C357.25 357.7 359 363 359 369.2C359 375.1 357.3 380.2 353.9 384.5C350.6 388.7 345.9 391.9 339.8 394.1C333.7 396.3 326.55 397.4 318.35 397.4ZM318.35 383.15C323.45 383.15 327.45 382 330.35 379.7C333.35 377.4 334.85 374.25 334.85 370.25C334.85 366.05 333.3 362.8 330.2 360.5C327.2 358.2 323.25 357.05 318.35 357.05C313.55 357.05 309.65 358.2 306.65 360.5C303.65 362.8 302.15 366.05 302.15 370.25C302.15 374.25 303.6 377.4 306.5 379.7C309.4 382 313.35 383.15 318.35 383.15ZM409.573 447.8C402.273 447.8 395.023 446.85 387.823 444.95C380.723 442.95 374.623 440.15 369.523 436.55L379.123 417.95C383.123 420.85 387.723 423.15 392.923 424.85C398.223 426.55 403.573 427.4 408.973 427.4C415.073 427.4 419.873 426.2 423.373 423.8C426.873 421.4 428.623 418.05 428.623 413.75C428.623 411.05 427.923 408.65 426.523 406.55C425.123 404.45 422.623 402.85 419.023 401.75C415.523 400.65 410.573 400.1 404.173 400.1H377.323L382.723 341H446.773V360.5H391.423L404.023 349.4L400.273 391.55L387.673 380.45H409.873C420.273 380.45 428.623 381.9 434.923 384.8C441.323 387.6 445.973 391.45 448.873 396.35C451.773 401.25 453.223 406.8 453.223 413C453.223 419.2 451.673 424.95 448.573 430.25C445.473 435.45 440.673 439.7 434.173 443C427.773 446.2 419.573 447.8 409.573 447.8ZM476.768 446L548.468 341H566.318L494.618 446H476.768ZM485.918 397.7C480.818 397.7 476.318 396.55 472.418 394.25C468.518 391.85 465.418 388.5 463.118 384.2C460.918 379.8 459.818 374.65 459.818 368.75C459.818 362.85 460.918 357.75 463.118 353.45C465.418 349.15 468.518 345.8 472.418 343.4C476.318 341 480.818 339.8 485.918 339.8C491.018 339.8 495.518 341 499.418 343.4C503.318 345.8 506.368 349.15 508.568 353.45C510.768 357.75 511.868 362.85 511.868 368.75C511.868 374.65 510.768 379.8 508.568 384.2C506.368 388.5 503.318 391.85 499.418 394.25C495.518 396.55 491.018 397.7 485.918 397.7ZM485.918 385.4C489.218 385.4 491.868 384.05 493.868 381.35C495.868 378.55 496.868 374.35 496.868 368.75C496.868 363.15 495.868 359 493.868 356.3C491.868 353.5 489.218 352.1 485.918 352.1C482.718 352.1 480.068 353.5 477.968 356.3C475.968 359 474.968 363.15 474.968 368.75C474.968 374.25 475.968 378.4 477.968 381.2C480.068 384 482.718 385.4 485.918 385.4ZM557.168 447.2C552.168 447.2 547.668 446.05 543.668 443.75C539.768 441.35 536.718 438 534.518 433.7C532.318 429.3 531.218 424.15 531.218 418.25C531.218 412.35 532.318 407.25 534.518 402.95C536.718 398.65 539.768 395.3 543.668 392.9C547.668 390.5 552.168 389.3 557.168 389.3C562.368 389.3 566.918 390.5 570.818 392.9C574.718 395.3 577.768 398.65 579.968 402.95C582.168 407.25 583.268 412.35 583.268 418.25C583.268 424.15 582.168 429.3 579.968 433.7C577.768 438 574.718 441.35 570.818 443.75C566.918 446.05 562.368 447.2 557.168 447.2ZM557.168 434.9C560.468 434.9 563.118 433.55 565.118 430.85C567.118 428.05 568.118 423.85 568.118 418.25C568.118 412.75 567.118 408.6 565.118 405.8C563.118 403 560.468 401.6 557.168 401.6C553.968 401.6 551.318 403 549.218 405.8C547.218 408.5 546.218 412.65 546.218 418.25C546.218 423.85 547.218 428.05 549.218 430.85C551.318 433.55 553.968 434.9 557.168 434.9Z" fill="#1E1E1E"/>
</g>
<defs>
<clipPath id="clip0_2_16">
<rect width="857" height="461" fill="white"/>
</clipPath>
</defs>
</svg>
