<svg width="72" height="72" viewBox="0 0 72 72" fill="none" xmlns="http://www.w3.org/2000/svg">
<g clip-path="url(#clip0_4091_315)">
<path d="M35.5922 12.003C23.0402 12.21 12.4652 22.581 12.0182 35.118C11.7542 42.402 14.7602 49.317 20.2682 54.096C22.6412 56.157 24.0002 59.325 24.0002 63C24.0002 67.962 28.0382 72 33.0002 72H39.0002C43.9622 72 48.0002 67.962 48.0002 63V61.875C48.0002 58.977 49.3652 56.181 51.8462 53.997C57.0302 49.443 60.0002 42.885 60.0002 36C60.0002 29.517 57.4532 23.439 52.8302 18.891C48.2072 14.343 42.0812 11.856 35.5922 12.003ZM42.0002 63C42.0002 64.656 40.6562 66 39.0002 66H33.0002C31.3442 66 30.0002 64.656 30.0002 62.793C30.0002 61.845 29.9072 60.915 29.7692 60H42.1232C42.0482 60.618 42.0002 61.245 42.0002 61.875V63ZM47.8862 49.491C46.3532 50.838 45.1172 52.362 44.1662 54H39.0002V41.448C42.4832 40.206 45.0002 36.906 45.0002 33C45.0002 31.341 43.6592 30 42.0002 30C40.3412 30 39.0002 31.341 39.0002 33C39.0002 34.659 37.6562 36 36.0002 36C34.3442 36 33.0002 34.656 33.0002 33C33.0002 31.344 31.6592 30 30.0002 30C28.3412 30 27.0002 31.341 27.0002 33C27.0002 36.906 29.5172 40.206 33.0002 41.448V54H27.7622C26.8322 52.326 25.6412 50.82 24.1982 49.566C20.0702 45.981 17.8142 40.794 18.0122 35.334C18.3482 25.932 26.2802 18.156 35.6942 18.003C35.7962 18.003 35.8952 18.003 36.0002 18.003C40.7582 18.003 45.2312 19.83 48.6242 23.172C52.0922 26.583 54.0032 31.14 54.0032 36.003C54.0032 41.163 51.7742 46.077 47.8892 49.494L47.8862 49.491ZM50.3552 7.42202L54.0602 1.39202C54.9242 -0.0239762 56.7722 -0.464976 58.1852 0.408024C59.5982 1.27502 60.0392 3.12002 59.1692 4.53302L55.4642 10.563C54.9002 11.487 53.9132 11.994 52.9052 11.994C52.3682 11.994 51.8282 11.85 51.3392 11.55C49.9262 10.683 49.4852 8.83502 50.3552 7.42202ZM70.2392 19.866L64.4402 22.482C64.0412 22.665 63.6212 22.749 63.2102 22.749C62.0642 22.749 60.9752 22.092 60.4742 20.982C59.7902 19.473 60.4622 17.694 61.9742 17.016L67.7732 14.4C69.2912 13.713 71.0612 14.391 71.7392 15.9C72.4232 17.409 71.7512 19.188 70.2392 19.866ZM12.5822 4.53002C11.7152 3.11702 12.1592 1.26902 13.5722 0.405024C14.9912 -0.458976 16.8332 -0.0149761 17.6972 1.39502L21.3932 7.42802C22.2602 8.84102 21.8162 10.689 20.4032 11.553C19.9142 11.853 19.3712 11.994 18.8402 11.994C17.8292 11.994 16.8452 11.484 16.2782 10.56L12.5822 4.52702V4.53002ZM11.1332 21.183C10.6202 22.26 9.54616 22.887 8.42716 22.887C7.99216 22.887 7.55116 22.794 7.13416 22.59L1.74016 20.007C0.246163 19.293 -0.386837 17.502 0.330163 16.008C1.04116 14.511 2.84116 13.872 4.32916 14.598L9.72316 17.181C11.2172 17.895 11.8502 19.689 11.1332 21.183Z" fill="#F39838"/>
</g>
<defs>
<clipPath id="clip0_4091_315">
<rect width="72" height="72" fill="white"/>
</clipPath>
</defs>
</svg>
