<svg width="72" height="72" viewBox="0 0 72 72" fill="none" xmlns="http://www.w3.org/2000/svg">
<g clip-path="url(#clip0_4091_313)">
<path d="M71.9998 68.9999C71.9998 70.6589 70.6558 71.9999 68.9998 71.9999H2.99984C1.34384 71.9999 -0.000159928 70.6589 -0.000159928 68.9999C-0.000159928 67.3409 1.34384 65.9999 2.99984 65.9999H68.9998C70.6558 65.9999 71.9998 67.3409 71.9998 68.9999ZM1.86884 53.8769C12.3988 58.1639 23.8378 60.3359 35.8678 60.3389C35.8678 60.3389 35.8798 60.3389 35.8828 60.3389C48.1048 60.3389 59.6338 58.1279 70.1458 53.7719C71.6758 53.1359 72.4018 51.3809 71.7688 49.8509C71.1358 48.3209 69.3808 47.5919 67.8478 48.2279C58.0648 52.2839 47.3068 54.3389 35.8738 54.3389C24.6208 54.3389 13.9378 52.3139 4.12784 48.3209C2.58884 47.6879 0.84284 48.4319 0.21884 49.9679C-0.40516 51.5039 0.33284 53.2529 1.86584 53.8769H1.86884ZM32.0518 32.8619C33.1438 33.9539 34.5748 34.4969 36.0088 34.4969C37.4428 34.4969 38.8738 33.9509 39.9658 32.8619L48.6298 24.1979C49.8028 23.0249 49.8028 21.1289 48.6298 19.9559C47.4568 18.7829 45.5608 18.7829 44.3878 19.9559L39.0058 25.3379L38.9998 3.00293C38.9998 1.34693 37.6558 0.00292969 35.9998 0.00292969C34.3438 0.00292969 32.9998 1.34693 32.9998 3.00293L33.0058 25.3319L27.6298 19.9559C26.4568 18.7829 24.5608 18.7829 23.3878 19.9559C22.2148 21.1289 22.2148 23.0249 23.3878 24.1979L32.0518 32.8619ZM35.9818 47.9999H35.9878C35.9878 47.9999 35.9938 47.9999 35.9998 47.9999H36.0058C54.0478 47.9909 66.6088 36.8579 71.1718 32.0699C72.3148 30.8699 72.2698 28.9709 71.0698 27.8279C69.8758 26.6849 67.9738 26.7299 66.8278 27.9299C62.7958 32.1599 51.7198 41.9969 35.9938 41.9999C20.3128 41.9999 9.21284 32.1569 5.16884 27.9269C4.02284 26.7299 2.12384 26.6849 0.92684 27.8309C-0.27016 28.9739 -0.31516 30.8759 0.83084 32.0729C5.40584 36.8609 17.9908 47.9909 35.9788 47.9999H35.9818Z" fill="#F39838"/>
</g>
<defs>
<clipPath id="clip0_4091_313">
<rect width="72" height="72" fill="white"/>
</clipPath>
</defs>
</svg>
