<svg width="72" height="72" viewBox="0 0 72 72" fill="none" xmlns="http://www.w3.org/2000/svg">
<g clip-path="url(#clip0_4091_27)">
<path d="M71.9999 28.5029C71.9999 37.7039 67.5149 46.3859 60.0059 51.7319C57.0089 53.8619 54.5009 57.1259 52.1099 62.0069C50.7359 64.8119 48.5969 67.2419 45.9269 69.0269C42.9749 71.0039 39.4949 71.9819 36.0179 71.9819C32.2229 71.9819 28.4249 70.8149 25.3109 68.4929C23.8829 67.4279 22.6349 66.1859 21.5939 64.7969C20.6009 63.4709 20.8709 61.5929 22.1969 60.5969C23.5259 59.6039 25.4039 59.8739 26.3969 61.1999C27.0929 62.1299 27.9359 62.9639 28.8989 63.6839C32.8619 66.6329 38.4929 66.7799 42.5879 64.0379C44.4059 62.8199 45.7949 61.2479 46.7189 59.3639C49.5659 53.5499 52.6828 49.5719 56.5258 46.8389C62.4599 42.6209 65.9999 35.7659 65.9999 28.4999C65.9999 22.1039 63.2609 15.9869 58.4879 11.7179C53.6459 7.39194 47.4089 5.41794 40.8779 6.14694C35.2769 6.77694 30.1229 9.54594 26.3669 13.9439C25.2899 15.2009 23.3969 15.3509 22.1369 14.2739C20.8799 13.1969 20.7299 11.3039 21.8069 10.0439C26.5529 4.49394 33.0899 0.98994 40.2059 0.18894C48.3509 -0.73506 56.4449 1.85094 62.4869 7.24794C68.5319 12.6509 71.9999 20.3999 71.9999 28.5029ZM43.4999 18.0029C49.2899 18.0029 53.9999 22.7129 53.9999 28.5029C53.9999 30.1589 55.3409 31.5029 56.9999 31.5029C58.6589 31.5029 59.9999 30.1589 59.9999 28.5029C59.9999 19.4039 52.5959 12.0029 43.4999 12.0029C35.0279 12.0029 27.9419 18.3089 27.0179 26.6699C27.0059 26.7779 26.9999 26.8889 26.9999 26.9999C26.9999 30.8939 30.0899 32.9999 32.9999 33.0029C34.6529 33.0029 35.9999 34.3499 35.9999 36.0029C35.9999 37.6559 34.6529 39.0029 32.9999 39.0029C31.3469 39.0029 29.9999 40.3469 29.9999 42.0029C29.9999 43.6589 31.3439 45.0029 32.9999 45.0029C37.9619 45.0029 41.9999 40.9649 41.9999 36.0029C41.9999 31.0409 37.9769 27.0149 33.0239 26.9999C33.7589 21.8489 38.2049 18.0029 43.4999 18.0029ZM14.1089 14.3669C12.9269 13.2029 11.0339 13.2149 9.86386 14.3909C8.69986 15.5699 8.71185 17.4689 9.88786 18.6359C15.1169 23.8019 17.9969 30.5759 17.9969 37.7069C17.9969 44.7089 15.1919 51.3359 10.1039 56.3669C8.92486 57.5309 8.91586 59.4299 10.0799 60.6119C10.6679 61.2059 11.4419 61.5029 12.2129 61.5029C12.9749 61.5029 13.7369 61.2149 14.3219 60.6359C20.5619 54.4679 23.9969 46.3259 23.9969 37.7069C23.9969 28.9589 20.4869 20.6699 14.1089 14.3669ZM5.80486 22.4819C4.63186 21.3089 2.73586 21.3089 1.56286 22.4819C0.389855 23.6549 0.389855 25.5509 1.56286 26.7239C7.48186 32.6429 7.48186 42.2759 1.56286 48.1949C0.389855 49.3679 0.389855 51.2639 1.56286 52.4369C2.14786 53.0219 2.91586 53.3159 3.68386 53.3159C4.45186 53.3159 5.21986 53.0219 5.80486 52.4369C14.0639 44.1779 14.0639 30.7409 5.80486 22.4819Z" fill="#F39838"/>
</g>
<defs>
<clipPath id="clip0_4091_27">
<rect width="72" height="72" fill="white"/>
</clipPath>
</defs>
</svg>
