<svg width="67" height="67" viewBox="0 0 67 67" fill="none" xmlns="http://www.w3.org/2000/svg">
<g clip-path="url(#clip0_4091_317)">
<path d="M15.3541 30.7083C20.742 30.7083 25.1249 26.3254 25.1249 20.9375C25.1249 15.5496 20.742 11.1667 15.3541 11.1667C9.96614 11.1667 5.58322 15.5496 5.58322 20.9375C5.58322 26.3254 9.96614 30.7083 15.3541 30.7083ZM15.3541 16.75C17.6628 16.75 19.5416 18.6288 19.5416 20.9375C19.5416 23.2462 17.6628 25.125 15.3541 25.125C13.0453 25.125 11.1666 23.2462 11.1666 20.9375C11.1666 18.6288 13.0453 16.75 15.3541 16.75ZM24.6531 39.9599C23.7905 41.2413 22.0596 41.5847 20.7783 40.7248C19.1731 39.6473 17.2971 39.0805 15.3541 39.0805C10.3653 39.0805 6.1918 42.813 5.64184 47.7626C5.48272 49.1892 4.27393 50.2472 2.86972 50.2472C2.76922 50.2472 2.66593 50.2416 2.55984 50.2305C1.02722 50.0602 -0.0754897 48.6783 0.0920103 47.1485C0.954635 39.3681 7.51505 33.4972 15.3541 33.4972C18.4081 33.4972 21.3561 34.3905 23.8882 36.0851C25.1696 36.9449 25.5129 38.6785 24.6531 39.9599ZM43.2707 19.5417C48.6586 19.5417 53.0415 15.1588 53.0415 9.77083C53.0415 4.38292 48.6586 0 43.2707 0C37.8828 0 33.4999 4.38292 33.4999 9.77083C33.4999 15.1588 37.8828 19.5417 43.2707 19.5417ZM43.2707 5.58333C45.5794 5.58333 47.4582 7.46213 47.4582 9.77083C47.4582 12.0795 45.5794 13.9583 43.2707 13.9583C40.962 13.9583 39.0832 12.0795 39.0832 9.77083C39.0832 7.46213 40.962 5.58333 43.2707 5.58333ZM47.4582 27.9167C36.6852 27.9167 27.9166 36.6853 27.9166 47.4583C27.9166 58.2314 36.6852 67 47.4582 67C58.2313 67 66.9999 58.2314 66.9999 47.4583C66.9999 36.6853 58.2313 27.9167 47.4582 27.9167ZM47.4582 61.4167C39.7616 61.4167 33.4999 55.155 33.4999 47.4583C33.4999 39.7617 39.7616 33.5 47.4582 33.5C55.1548 33.5 61.4165 39.7617 61.4165 47.4583C61.4165 55.155 55.1548 61.4167 47.4582 61.4167ZM56.453 44.0748C57.5194 45.1859 57.4831 46.953 56.372 48.0223L50.194 53.9518C48.9322 55.1968 47.2572 55.825 45.5794 55.825C43.9016 55.825 42.2211 55.1968 40.9369 53.9434L37.7767 50.8474C36.674 49.767 36.6601 47.9999 37.7376 46.9C38.8152 45.7973 40.5823 45.7805 41.6851 46.8609L44.8424 49.9541C45.2444 50.3505 45.9005 50.3421 46.2997 49.9485L52.5056 43.9911C53.6138 42.9275 55.3838 42.9582 56.453 44.072V44.0748Z" fill="#F39838"/>
</g>
<defs>
<clipPath id="clip0_4091_317">
<rect width="67" height="67" fill="white"/>
</clipPath>
</defs>
</svg>
