<svg width="72" height="72" viewBox="0 0 72 72" fill="none" xmlns="http://www.w3.org/2000/svg">
<g clip-path="url(#clip0_4091_671)">
<path d="M51 6H57C59.3869 6 61.6761 6.94821 63.364 8.63604C65.0518 10.3239 66 12.6131 66 15V57C66 59.3869 65.0518 61.6761 63.364 63.364C61.6761 65.0518 59.3869 66 57 66H51C50.2044 66 49.4413 66.3161 48.8787 66.8787C48.3161 67.4413 48 68.2044 48 69C48 69.7956 48.3161 70.5587 48.8787 71.1213C49.4413 71.6839 50.2044 72 51 72H57C60.9768 71.9952 64.7893 70.4134 67.6013 67.6013C70.4134 64.7893 71.9952 60.9768 72 57V15C71.9952 11.0232 70.4134 7.21067 67.6013 4.39866C64.7893 1.58664 60.9768 0.00476074 57 0H51C50.2044 0 49.4413 0.316071 48.8787 0.878677C48.3161 1.44128 48 2.20435 48 3C48 3.79565 48.3161 4.55872 48.8787 5.12132C49.4413 5.68393 50.2044 6 51 6Z" fill="#F39838"/>
<path d="M2.99981 39L50.3308 38.904C50.0677 39.3927 49.7386 39.8429 49.3528 40.242L37.7158 51.879C37.4293 52.1557 37.2007 52.4868 37.0435 52.8528C36.8863 53.2188 36.8035 53.6125 36.8001 54.0108C36.7966 54.4091 36.8725 54.8042 37.0234 55.1729C37.1742 55.5416 37.397 55.8765 37.6786 56.1582C37.9603 56.4399 38.2953 56.6626 38.664 56.8135C39.0326 56.9643 39.4277 57.0402 39.826 57.0368C40.2244 57.0333 40.618 56.9505 40.984 56.7933C41.35 56.6361 41.6811 56.4075 41.9578 56.121L53.6008 44.484C55.8505 42.2337 57.1143 39.182 57.1143 36C57.1143 32.818 55.8505 29.7663 53.6008 27.516L41.9638 15.879C41.6871 15.5925 41.356 15.3639 40.99 15.2067C40.624 15.0495 40.2304 14.9667 39.832 14.9632C39.4337 14.9598 39.0386 15.0357 38.67 15.1865C38.3013 15.3374 37.9663 15.5601 37.6846 15.8418C37.403 16.1235 37.1802 16.4585 37.0294 16.8271C36.8785 17.1958 36.8026 17.5909 36.8061 17.9892C36.8095 18.3875 36.8923 18.7812 37.0495 19.1472C37.2067 19.5132 37.4353 19.8443 37.7218 20.121L49.3588 31.758C49.6946 32.1037 49.9877 32.4885 50.2318 32.904L2.99981 33C2.20416 33 1.4411 33.3161 0.87849 33.8787C0.31588 34.4413 -0.00018692 35.2044 -0.00018692 36C-0.00018692 36.7957 0.31588 37.5587 0.87849 38.1213C1.4411 38.6839 2.20416 39 2.99981 39Z" fill="#F39838"/>
</g>
<defs>
<clipPath id="clip0_4091_671">
<rect width="72" height="72" fill="white" transform="matrix(-1 0 0 -1 72 72)"/>
</clipPath>
</defs>
</svg>
