<svg width="604" height="604" viewBox="0 0 604 604" fill="none" xmlns="http://www.w3.org/2000/svg">
<path d="M302 578.875C367.239 578.875 420.125 454.914 420.125 302C420.125 149.086 367.239 25.125 302 25.125C236.761 25.125 183.875 149.086 183.875 302C183.875 454.914 236.761 578.875 302 578.875Z" stroke="#050525" stroke-width="50" stroke-miterlimit="10" stroke-linecap="round" stroke-linejoin="round"/>
<path d="M43.875 209.5H560.125" stroke="#050525" stroke-width="50" stroke-miterlimit="10" stroke-linecap="round" stroke-linejoin="round"/>
<path d="M480.125 394.5H43.875" stroke="#050525" stroke-width="50" stroke-miterlimit="10" stroke-linecap="round" stroke-linejoin="round"/>
<path d="M302 578.875C454.914 578.875 578.875 454.914 578.875 302C578.875 149.086 454.914 25.125 302 25.125C149.086 25.125 25.125 149.086 25.125 302C25.125 454.914 149.086 578.875 302 578.875Z" stroke="#050525" stroke-width="50" stroke-miterlimit="10" stroke-linecap="round" stroke-linejoin="round"/>
</svg>
